<?xml version="1.0" standalone="no"?><!DOCTYPE svg PUBLIC "-//W3C//DTD SVG 1.1//EN" "http://www.w3.org/Graphics/SVG/1.1/DTD/svg11.dtd"><svg t="1570859078350" class="icon" viewBox="0 0 1024 1024" version="1.1" xmlns="http://www.w3.org/2000/svg" p-id="3999" xmlns:xlink="http://www.w3.org/1999/xlink" width="200" height="200"><defs><style type="text/css"></style></defs><path d="M921.6 1024 102.4 1024C45.824 1024 0 978.176 0 921.6L0 102.4C0 45.888 45.824 0 102.4 0l819.2 0C978.112 0 1024 45.888 1024 102.4l0 819.2C1024 978.176 978.112 1024 921.6 1024L921.6 1024zM542.272 297.6c0-12.672-10.624-21.12-23.616-18.816L279.616 320.896C266.624 323.136 256 335.36 256 347.968l0.96 323.52c0 12.608 10.624 25.024 23.616 27.52l238.08 46.016c12.928 2.496 23.552-5.824 23.552-18.432L542.208 297.6 542.272 297.6zM768 344.512c0-12.608-10.816-22.976-24-22.976L601.024 321.536c-13.248 0-24.064 10.368-24.064 22.976l0 58.112c3.008 0 5.952 0 8.704 0l78.336 0c13.248 0 30.784 0 39.04 0 8.256 0 15.04 9.792 15.04 21.76 0 11.968-6.72 21.76-15.04 21.76-8.256 0-25.856 0-39.04 0L583.936 446.144c-2.24 0-4.608 0-6.976 0l0 43.84c3.008 0 5.952 0 8.704 0l78.336 0c13.248 0 30.784 0 39.04 0 8.256 0 15.04 9.792 15.04 21.76 0 11.968-6.72 21.76-15.04 21.76-8.256 0-25.856 0-39.04 0L583.936 533.504c-2.24 0-4.608 0-6.976 0l0 35.712c3.008 0 5.952 0 8.704 0l78.336 0c13.248 0 30.784 0 39.04 0 8.256 0 15.04 9.792 15.04 21.76 0 11.968-6.72 21.76-15.04 21.76-8.256 0-25.856 0-39.04 0L583.936 612.736c-2.24 0-4.608 0-6.976 0l0 66.944c0 12.672 10.816 22.976 24.064 22.976l142.976 0c13.248 0 24-10.304 24-22.976L768 344.512 768 344.512zM479.808 548.224 427.008 548.224l-13.76 32L394.176 580.224l50.432-116.544L462.08 463.68l50.56 116.544L493.568 580.224 479.808 548.224 479.808 548.224zM453.312 487.68 434.176 532.224l38.464 0L453.312 487.68 453.312 487.68zM339.328 581.696c-16.896 0-30.08-6.144-39.68-18.496C291.072 552.32 286.72 538.624 286.72 522.112c0-16.512 4.288-30.208 12.928-41.152 9.536-12.16 22.784-18.304 39.68-18.304 16.896 0 30.08 6.08 39.616 18.304C387.584 491.904 391.936 505.6 391.936 522.112c0 16.512-4.288 30.208-12.928 41.152C369.408 575.552 356.224 581.696 339.328 581.696L339.328 581.696zM365.632 492.8C359.488 483.776 350.72 479.296 339.328 479.296c-11.456 0-20.224 4.48-26.304 13.504C307.712 500.544 305.088 510.336 305.088 522.112c0 11.712 2.688 21.44 8.128 29.312C319.36 560.704 328 565.312 339.328 565.312c11.264 0 19.968-4.608 26.112-13.696 5.312-7.872 7.936-17.728 7.936-29.504C373.376 510.336 370.816 500.544 365.632 492.8L365.632 492.8z" fill="#1296db" p-id="4000"></path></svg>